<svg width="266" height="237" viewBox="0 0 266 237" fill="none" xmlns="http://www.w3.org/2000/svg">
<rect width="266" height="237" rx="36" fill="white"/>
<path d="M173.117 8.17236C175.262 8.21691 177.276 9.23199 178.954 10.4873C193.68 21.5036 207.237 38.2446 214.133 54.8773C215.804 58.9077 216.988 64.3814 218.755 68.6688C220.519 72.9504 222.667 75.2028 225.114 79.0633C228.601 84.6902 231.248 90.7611 232.976 97.0972C239.277 119.464 237.967 143.939 226.561 164.845C225.601 167.64 219.162 174.078 218.922 176.485C218.812 180.451 226.068 190.658 222.202 194.227C217.627 198.451 207.263 204.19 201.286 206.974C187.142 213.404 172.438 218.628 157.344 222.587C154.125 223.428 149.24 224.757 145.978 225.128C144.845 230.852 144.276 230.904 142.312 236.023C141.981 236.11 141.649 236.19 141.315 236.263C133.714 237.921 125.811 230.97 119.428 227.074C116.823 227.232 113.809 227.33 111.198 227.126C110.828 227.188 108.516 226.1 108.361 226.21C105.03 228.511 101.009 231.061 97.0161 232.098C91.959 233.413 89.9388 228.432 89.1981 224.688C87.8406 217.823 87.202 204.515 91.3818 198.755L94.1315 197.816C99.3808 198.721 99.2862 199.792 103.488 202.377C104.619 203.327 107.554 206.138 109.095 205.299C109.411 203.256 105.048 198.896 103.168 198.22C98.8953 196.685 93.5787 196.249 89.048 195.991C78.9116 195.411 68.3525 193.323 61.8197 185.132C59.849 182.73 59.4981 180.267 58.014 178.362C57.349 177.507 54.5707 176.545 52.6673 174.548C48.5436 170.157 46.1508 164.516 45.9048 158.605C45.8204 156.655 46.0329 154.614 46.0376 152.674C46.0446 149.642 45.0561 146.461 46.8234 143.704C47.4635 142.705 48.4319 141.928 49.3255 141.157C43.6791 138.328 39.7783 139.166 36.3173 132.76C34.0256 128.519 30.0765 106.344 31.5364 102.105C32.1599 100.294 33.6073 98.9151 35.3595 98.0732C40.6569 95.5279 53.2707 97.063 58.877 98.8724C59.6461 97.3768 60.5743 95.0362 61.3523 93.3701C64.7349 85.8777 72.2016 75.4882 78.9056 70.4728C92.4014 60.3754 90.4723 64.4598 87.0818 48.3742C85.1711 37.7687 81.6496 27.2721 81.932 16.4223C82.0504 11.8624 87.0685 13.2898 89.8691 14.5628C105.034 21.4562 118.551 30.8329 130.49 42.1442C132.34 43.8968 134.322 45.3732 135.924 47.3732C139.673 46.3962 148.551 46.6476 152.725 46.7432C156.093 36.2606 158.928 25.753 164.798 16.1668C167.214 12.2218 168.866 10.2647 173.117 8.17236ZM148.931 58.7787C149.573 56.2838 150.47 53.8713 151.065 51.4471C146.945 51.3457 141.452 51.088 137.315 51.6341C112.108 54.9609 87.0194 64.8248 71.6922 85.26C68.5853 89.4021 64.4847 96.8365 63.3144 101.511C64.3603 103.598 65.6056 105.395 66.3146 107.547C67.7233 107.569 73.0142 108.432 73.175 108.21C74.5219 106.355 74.5588 104.284 76.4718 102.189C81.3755 96.8168 93.1867 97.0892 100.36 96.8163C107.254 96.5541 118.278 96.6709 124.954 98.2944C127.128 98.8233 132.399 102.099 134.655 102.546C138.373 103.282 144.402 103.116 148.302 103.131L175.857 103.154C183.855 103.14 199.354 102.138 206.294 104.411C210.089 105.654 213.763 108.535 215.61 111.964C216.521 113.657 217.871 116.357 217.254 118.269C217.053 118.892 216.601 119.443 215.982 119.725C215.312 120.03 214.536 119.951 213.871 119.682C213.183 119.404 212.431 118.942 212.147 118.253C211.774 117.348 211.699 116.35 211.33 115.448C210.148 112.556 207.288 110.486 204.439 109.204C202.763 108.45 201.042 108.09 199.208 107.964C192.616 107.512 137.216 107.523 134.586 108.513C133.492 108.924 132.701 109.913 132.282 110.936C131.328 113.27 131.642 116.589 131.544 119.081C131.429 121.973 131.026 124.838 130.586 127.698C129.635 133.887 128.544 139.907 121.94 142.818C115.901 145.48 93.2267 144.575 87.1397 142.285C82.823 140.66 80.0348 137.297 78.2564 133.317C75.5436 127.245 74.5445 121.275 73.6659 114.782C70.8643 113.48 70.3567 113.24 67.2482 112.978C66.4348 126.932 59.1295 133.227 52.4418 143.779C57.2321 143.758 77.1342 142.872 68.6201 152.427C67.0687 154.168 62.8946 153.693 62.3512 157.443C62.2278 158.294 61.1365 161.008 60.7575 161.833C61.3495 163.233 62.3675 165.674 63.1183 166.892C65.0279 169.614 69.6784 172.261 72.7596 173.466C78.6271 175.759 84.8651 176.896 91.1717 176.28C93.5203 176.051 98.0359 174.042 99.2582 176.905C98.7693 182.467 86.0133 180.84 81.9608 180.844C78.066 180.847 69.6976 177.768 66.7471 175.495C65.1012 174.495 64.485 174.298 62.599 173.761C62.7068 178.375 64.1613 180.927 67.5017 184.178C78.1585 194.549 96.809 188.889 107.35 194.841C108.622 197.555 112.876 200.357 115.197 205.236C116.808 206.083 117.926 206.694 119.775 206.047C126.273 203.772 133.831 196.125 141.2 198.075C143.051 198.566 142.681 203.74 147.942 202.051C167.924 195.635 189.61 189.934 207.444 178.935C217.685 172.619 223.828 161.434 227.233 150.608C234.672 129.199 233.007 104.892 222.542 84.6513C221.603 82.8338 220.383 81.1836 219.366 79.4156C219.32 81.4675 219.593 92.447 216.27 92.9866C215.768 93.068 214.442 92.2784 214.044 91.7581C213.219 89.7231 214.964 81.6795 214.764 78.3122C213.848 62.8997 203.524 40.0966 191.869 29.5305C193.493 33.0094 195.316 37.5215 196.722 41.0551C201.784 53.7852 202.794 68.1504 198.024 81.1017C197.406 82.8093 196.372 84.5394 195.051 85.8428C191.709 83.7234 190.169 81.7651 187.35 79.485C183.53 76.3961 177.825 71.5806 173.384 69.5769C166.461 66.453 158.338 67.6583 161.065 57.13C163.836 46.4339 166.375 35.0177 170.9 24.8002C171.293 23.9196 172.82 23.3046 173.784 23.3638C174.393 23.8105 174.328 23.6224 174.501 24.2042C171.777 32.6499 169.045 41.0936 166.848 49.6808C165.815 53.717 164.197 57.7494 164.4 62.0256C170.063 65.073 175.296 66.0034 181.068 69.7464C185.923 72.8955 189.343 76.8071 193.779 79.7541C199.808 65.4623 195.926 45.1834 188.222 31.729C186.461 28.6534 176.663 14.2634 174.201 13.243C173.889 13.1149 173.559 13.0352 173.221 13.007C170.099 16.8036 167.492 20.9673 165.465 25.397C164.627 27.2639 164.092 29.4304 163.324 31.2754C161.285 36.1755 159.668 41.1864 157.937 46.2022C156.622 50.0149 155.697 54.2294 153.945 57.9594C153.43 59.0543 152.488 60.9989 151.253 61.2988C150.182 60.9906 149.501 59.6855 148.931 58.7787ZM111.456 139.2C114.747 139.167 119.137 139.358 121.596 136.895C125.857 132.624 125.498 125.797 125.981 120.322C126.266 117.091 126.571 114.06 126.487 110.833C126.417 108.12 126.468 107.173 125.541 104.635C118.492 101.255 102.363 101.626 94.1367 102.187C90.881 102.297 82.6617 103.222 80.7362 105.416C75.261 111.656 81.8525 131.322 86.8836 136.225C90.4193 139.671 106.454 139.165 111.456 139.2ZM104.905 222.683C103.022 217.254 104.32 214.654 104.266 209.383C104.257 208.506 96.2554 202.734 95.2995 202.586C92.5383 205.411 92.7646 210.722 92.8142 214.647C92.8358 216.357 92.9979 226.995 96.5087 227.262C97.2221 227.316 99.9557 225.834 100.972 225.444C102.912 224.748 103.521 224.174 104.905 222.683ZM111.529 51.8156C116.752 51.5639 120.878 50.1225 125.875 48.7268C127.052 48.5457 128.249 48.3482 129.43 48.2061C128.112 46.7317 125.769 44.2993 124.525 42.9992C120.649 38.9465 99.664 23.5146 95.195 22.8052C96.9452 26.3687 98.0281 26.9111 99.878 29.761C103.73 35.6951 109.675 45.2057 111.529 51.8156ZM114.929 222.546C115.489 222.206 116.024 222.036 116.068 221.396C116.224 219.129 116.328 213.608 115.925 211.578C114.939 210.43 111.884 210.674 110.351 210.725C109.324 211.525 108.809 212.539 108.828 213.801C108.916 219.666 108.213 222.23 114.929 222.546ZM58.4452 172.457C60.0761 166.465 53.7469 162.042 51.6955 157.08C51.6308 156.923 51.1575 156.669 51.013 156.611C49.7674 161.358 53.0938 169.64 57.4051 172.446C57.8441 172.51 58.0062 172.564 58.4452 172.457ZM59.469 151.638L59.6002 151.492C61.0424 149.918 62.6969 151.232 64.7146 149.363L64.6873 148.984C63.4846 148.25 52.911 148.184 50.9354 148.333C50.9302 148.526 50.9237 148.756 50.9161 149.023C52.5844 150.899 56.0179 155.701 57.5087 157.274C57.9872 154.868 58.1722 153.828 59.469 151.638ZM52.282 135.621C55.5739 129.9 58.0498 130.63 55.8817 123.384C55.5887 122.386 55.2767 121.394 54.9458 120.408C54.7044 118.837 54.5655 117.932 54.6468 116.323C54.7226 114.82 55.6389 111.845 55.3445 110.559C52.8413 108.995 39.9378 110.718 37.9684 107.102L38.0292 106.601C41.8445 103.771 57.4677 108.085 58.8627 105.851C58.4078 102.411 45.7552 102.096 42.8909 102.194C41.4816 102.244 39.187 102.136 38.1815 103.109C36.6963 104.545 36.9984 110.857 37.2024 112.886C37.8128 118.963 38.8912 128.528 43.1632 133.275C44.8868 135.19 49.724 135.533 52.282 135.621ZM59.9451 121.879C61.1471 120.044 61.8485 114.118 61.3926 111.812C61.2516 111.099 60.8258 111.005 60.2218 110.672C58.0636 112.755 58.1148 120.004 59.9451 121.879ZM146.082 207.136C146.213 210.859 146.876 216.396 146.634 219.787C147.901 219.623 149.553 219.456 150.781 219.245C154.107 218.144 157.947 217.813 161.612 216.636C179.211 210.982 196.981 205.405 212.605 195.496C214.835 194.082 216.637 192.069 218.927 190.827C217.647 188.102 215.887 183.542 214.477 180.778C214.226 180.655 214.011 180.549 213.831 180.461C211.136 181.317 207.32 184.783 204.553 186.247C187.666 195.18 168.959 200.409 150.69 206.022C149.156 206.493 147.616 206.779 146.082 207.136ZM87.3854 22.5266C86.8482 29.6973 90.5952 41.3305 92.1409 48.4426C92.7054 51.0401 93.419 57.3924 95.2764 59.1372C96.9446 58.9527 101.8 56.4501 103.636 55.6548C104.605 55.2808 106.339 54.7492 106.963 54.0423C107.085 52.2633 105.548 49.7992 104.828 48.1198C100.952 39.0846 95.3517 30.8032 88.7064 23.4267C88.2365 22.9051 87.9959 22.8284 87.3854 22.5266ZM137.425 202.15C134.546 203.516 123.6 209.21 121.65 211.002C121.899 223.964 119.23 220.81 129.724 228.146C131.499 229.069 136.615 232.116 138.148 232.07C142.351 230.314 142.15 206.103 138.766 202.274C138.162 202.142 138.041 202.114 137.425 202.15Z" fill="#5E5E5E"/>
</svg>
